<svg style="display: none;" version="1.1" id="Presets" baseProfile="tiny" xmlns="http://www.w3.org/2000/svg" xmlns:xlink="http://www.w3.org/1999/xlink">
    <!-- Define Logo SVG -->
    <g id="Acronimo">
        <path id="U" fill="#FFF200" d="M65.7,0H47L34.6,26.5c-1.9,4-2,7.5,1.1,11.3c3.5,4.2,10.8,5.9,18.2,5.9h13.6c6.8,0,11.3-1.3,16.6-5.6
            c3.3-2.7,4.8-4.7,6.6-8.5L104.5,0H85.3L75.1,21.4c-2.8,6.7-4.3,8.2-13.2,8.2c-5.7,0-7.8-4.6-6.1-8.2L65.7,0z"/>
        <path id="N" fill="#FFF200" d="M155.2,0.2h17.9l-13.7,29.6c-2,4.4-4.4,6.9-8.5,9.8c-2.5,1.8-9.6,3.9-15.6,2.6l-11.4-22.2l-4.5,9.7
            c-2,4.3-4.4,6.9-8.5,9.8c-2.5,1.8-9.6,3.9-15.6,2.6l19.9-42.1h17.9l12.3,20.6L155.2,0.2z"/>
        <path id="I" fill="#FFF200" d="M162.6,42.1L182.4,0h17.9l-13.8,29.6c-2,4.4-4.4,6.9-8.4,9.8C175.6,41.3,168.7,43.4,162.6,42.1"/>
        <path id="P" fill="#FFF200" d="M225.8,8.1l-5.6,11.7h13.9c1.2,0,2-0.2,3-0.8c1-0.6,1.5-1.1,2-2.1l1.8-3.8c0.6-1.1,0.3-2.1-0.3-3.1
            c-0.7-1.3-1.9-1.8-3.3-1.8H225.8z M210.5,0h47.1c2,0,3.3,0.9,4.6,2.5c2.1,2.6,1.4,5.7,0,8.7l-4.8,10.2c-1.1,2.3-1.7,3.8-3.6,5.4
            c-2.6,2.1-4.8,2.8-8.1,2.8h-30.3c-1.7,4.3-3.6,6.6-7.4,9.2c-3.4,2.3-6,3.3-10.1,3.3h-7L210.5,0z"/>
    </g>
    <path id="Linha" fill="#FFF200" d="M0,51.5c0,0,4.4-0.1,12-0.3c7.7-0.1,18.6-0.4,31.7-0.5c13.1-0.1,28.4-0.4,44.8-0.4
        c16.4-0.1,33.9-0.1,51.4-0.2c17.5,0.1,35,0.1,51.4,0.2c16.4,0,31.7,0.3,44.8,0.4c13.1,0.1,24.1,0.4,31.7,0.5c7.7,0.2,12,0.3,12,0.3
        s-4.4,0.1-12,0.3c-7.7,0.1-18.6,0.4-31.7,0.5c-13.1,0.1-28.4,0.4-44.8,0.4c-16.4,0.1-33.9,0.1-51.4,0.2c-17.5-0.1-35-0.1-51.4-0.2
        c-16.4-0.1-31.7-0.3-44.8-0.4c-13.1-0.1-24.1-0.4-31.7-0.5C4.4,51.6,0,51.5,0,51.5"/>
    <g id="Descritivo">
        <path fill="#FFFFFF" d="M42.1,59.4h-2.8l-1.8,8.1c-0.3,1.5-1.3,2.4-3.2,2.4c-1.3,0-2.2-0.8-1.8-2.5l1.8-8h-2.8l-1.8,8.1
            c-0.3,1.2-0.2,2.2,0.3,3c0.9,1.2,2.7,1.5,3.9,1.5c3.3,0,5.8-1.4,6.5-4.6L42.1,59.4z"/>
        <polygon fill="#FFFFFF" points="50.5,67.9 50.5,67.9 47.2,59.4 44.3,59.4 41.4,71.7 44,71.7 46,62.9 46.1,62.9 49.5,71.7 52.2,71.7 
            55,59.4 52.5,59.4 		"/>
        <polygon fill="#FFFFFF" points="59.8,59.4 57.1,59.4 54.3,71.7 57,71.7 		"/>
        <polygon fill="#FFFFFF" points="64.7,68.7 64.6,68.7 63.9,59.4 61,59.4 62.6,71.7 65.3,71.7 72.6,59.4 69.7,59.4 		"/>
        <polygon fill="#FFFFFF" points="83.6,59.4 73.9,59.4 71.1,71.7 81.2,71.7 81.7,69.5 74.3,69.5 75.1,66.3 81.5,66.3 82,64.2 
            75.6,64.2 76.1,61.6 83.2,61.6 		"/>
        <path fill="#FFFFFF" d="M83,71.7h2.7l1.1-4.8h2.9c2,0,2,0.6,1.6,2.3C91,70.5,91,71.1,91,71.7h3l0.1-0.3c-0.5-0.2-0.4-0.6,0-2.4
            c0.5-2.3,0-2.7-1-3.1c1.4-0.4,2.4-1.6,2.7-2.9c0.3-1.1,0.2-3.5-3.4-3.5h-6.7L83,71.7z M87.3,64.8l0.8-3.3h3.5c1.6,0,1.7,1,1.6,1.6
            c-0.3,1.2-1.1,1.7-2.5,1.7H87.3z"/>
        <path fill="#FFFFFF" d="M96.1,67.9c-0.3,1.5-0.1,4.1,4.7,4.1c1.1,0,5.3-0.3,6.1-4c0.5-2.2-1-2.9-2.7-3.3l-3.1-0.8
            c-0.5-0.1-1.3-0.3-1.1-1.3c0.3-1.1,1.6-1.5,2.6-1.5c2.4,0,2.3,1.3,2.3,1.8h2.6c0.3-1.5-0.2-4-4.2-4c-4.3,0-5.7,2.4-6,3.8
            c-0.6,2.7,1.3,3.2,3.4,3.6l1.4,0.3c1.3,0.3,2.3,0.6,2,1.5c-0.3,1.3-1.8,1.6-3.1,1.6c-2.4,0-2.5-1.3-2.4-2H96.1z"/>
        <polygon fill="#FFFFFF" points="113.2,59.4 110.4,59.4 107.6,71.7 110.4,71.7 		"/>
        <path fill="#FFFFFF" d="M112.5,71.7h5.7c4.4,0,6.4-3.8,7-6.4c0.5-2.3,0.4-5.8-4.1-5.8h-5.8L112.5,71.7z M117.6,61.5h2.7
            c1.2,0,3,0.3,2.1,3.9c-0.4,2-1.7,4.1-3.9,4.1h-2.7L117.6,61.5z"/>
        <path fill="#FFFFFF" d="M128.8,69.1h4.9l0.3,2.5h3l-1.8-12.3h-3.2l-7.5,12.3h2.9L128.8,69.1z M132.9,62.2L132.9,62.2l0.6,4.8h-3.4
            L132.9,62.2z"/>
        <path fill="#FFFFFF" d="M138.3,71.7h5.7c4.4,0,6.4-3.8,7-6.4c0.5-2.3,0.4-5.8-4-5.8h-5.9L138.3,71.7z M143.4,61.5h2.7
            c1.2,0,3,0.3,2.2,3.9c-0.5,2-1.7,4.1-3.9,4.1h-2.7L143.4,61.5z"/>
        <polygon fill="#FFFFFF" points="163.8,59.4 154.1,59.4 151.3,71.7 161.3,71.7 161.8,69.5 154.5,69.5 155.2,66.3 161.7,66.3 
            162.2,64.2 155.7,64.2 156.3,61.6 163.3,61.6 		"/>
        <path fill="#FFFFFF" d="M171.6,67.2h3.2c3.6,0,4.8-2.8,5.1-3.9c0.5-2.4-0.7-3.9-3.2-3.9h-6l-2.8,12.3h2.8L171.6,67.2z M172.1,65.1
            l0.8-3.6h2.2c1.7,0,2.3,0.5,2,1.7c-0.1,0.6-0.4,1.9-2.5,1.9H172.1z"/>
        <path fill="#FFFFFF" d="M181.7,69.1h4.9l0.3,2.5h3L188,59.4h-3.2l-7.5,12.3h2.9L181.7,69.1z M185.7,62.2L185.7,62.2l0.6,4.8h-3.4
            L185.7,62.2z"/>
        <path fill="#FFFFFF" d="M204.6,59.4h-2.8l-1.9,8.1c-0.3,1.5-1.3,2.4-3.2,2.4c-1.3,0-2.2-0.8-1.8-2.5l1.8-8H194l-1.9,8.1
            c-0.2,1.2-0.2,2.2,0.4,3c0.9,1.2,2.6,1.5,3.9,1.5c3.3,0,5.8-1.4,6.5-4.6L204.6,59.4z"/>
        <polygon fill="#FFFFFF" points="209.7,59.4 207,59.4 204.1,71.7 213.5,71.7 214,69.5 207.4,69.5 		"/>
        <polygon fill="#FFFFFF" points="220.4,59.4 217.6,59.4 214.8,71.7 217.5,71.7 		"/>
        <path fill="#FFFFFF" d="M219.9,67.9c-0.4,1.5-0.1,4.1,4.7,4.1c1.1,0,5.3-0.3,6.1-4c0.5-2.2-1-2.9-2.7-3.3l-3-0.8
            c-0.5-0.1-1.3-0.3-1.1-1.3c0.3-1.1,1.6-1.5,2.7-1.5c2.4,0,2.3,1.3,2.3,1.8h2.7c0.3-1.5-0.2-4-4.3-4c-4.3,0-5.6,2.4-6,3.8
            c-0.6,2.7,1.4,3.2,3.4,3.6l1.3,0.3c1.3,0.3,2.3,0.6,2.1,1.5c-0.3,1.3-1.8,1.6-3.1,1.6c-2.4,0-2.5-1.3-2.4-2H219.9z"/>
        <polygon fill="#FFFFFF" points="239.6,61.6 243.6,61.6 244.1,59.4 233.3,59.4 232.8,61.6 236.8,61.6 234.5,71.7 237.3,71.7 		"/>
        <path fill="#FFFFFF" d="M250.8,59h-3.2l-7.5,12h2.9l1.5-2h4.9l0.3,2h3L250.8,59z M245.7,67l2.8-5h0l0.5,5H245.7z"/>
    </g>
    <!-- Define: Tag SVG -->
    <g id="Tag">
        <polygon fill="#FFED00" points="38.6,9.3 36.9,8.4 40.9,0 58,0 53.7,9.3 51.9,8.4 54.9,1.9 42.1,1.9"/>
        <polygon fill="#FFED00" points="8.9,9.3 7.1,8.4 11,0 27.8,0 23.5,9.3 21.7,8.4 24.7,1.9 12.3,1.9"/>
        <path fill="#FFED00" d="M27.7,36H17.1c-4,0-11.3-0.6-15-5C0.7,29.3,0,27.6,0,25.7h1.9c0,1.4,0.6,2.7,1.7,4.1c2.3,2.7,7.2,4.3,13.5,4.3h10.6c5.4,0,8.6-1.1,12.3-4.1c1.9-1.6,3-2.9,4.1-4.7l1.7,1c-1.1,2-2.4,3.5-4.5,5.2C37.1,34.8,33.5,36,27.7,36z"/>
    </g>	
</svg>